<mxfile host="app.diagrams.net" modified="2023-11-18T08:26:59.407Z" agent="Mozilla/5.0 (Macintosh; Intel Mac OS X 10_15_7) AppleWebKit/537.36 (KHTML, like Gecko) Chrome/119.0.0.0 Safari/537.36" etag="yh51gTrjnG14Nv2i4bY6" version="22.1.3" type="github">
  <diagram name="Page-1" id="tAO8Kllba2poA0xoSHze">
    <mxGraphModel dx="459" dy="346" grid="1" gridSize="10" guides="1" tooltips="1" connect="1" arrows="1" fold="1" page="1" pageScale="1" pageWidth="850" pageHeight="1100" math="0" shadow="0">
      <root>
        <mxCell id="0" />
        <mxCell id="1" parent="0" />
        <mxCell id="p-pG7fpzum94PpNvyZir-1" value="Пользователь" style="shape=umlActor;verticalLabelPosition=bottom;verticalAlign=top;html=1;outlineConnect=0;" vertex="1" parent="1">
          <mxGeometry x="120" y="130" width="30" height="60" as="geometry" />
        </mxCell>
        <mxCell id="p-pG7fpzum94PpNvyZir-4" value="Зарегистрироваться" style="ellipse;whiteSpace=wrap;html=1;" vertex="1" parent="1">
          <mxGeometry x="260" y="90" width="130" height="50" as="geometry" />
        </mxCell>
        <mxCell id="p-pG7fpzum94PpNvyZir-5" value="Авторизироваться" style="ellipse;whiteSpace=wrap;html=1;" vertex="1" parent="1">
          <mxGeometry x="260" y="170" width="130" height="50" as="geometry" />
        </mxCell>
        <mxCell id="p-pG7fpzum94PpNvyZir-6" value="" style="endArrow=classic;html=1;rounded=0;entryX=0;entryY=0.5;entryDx=0;entryDy=0;" edge="1" parent="1" target="p-pG7fpzum94PpNvyZir-4">
          <mxGeometry width="50" height="50" relative="1" as="geometry">
            <mxPoint x="160" y="160" as="sourcePoint" />
            <mxPoint x="270" y="210" as="targetPoint" />
          </mxGeometry>
        </mxCell>
        <mxCell id="p-pG7fpzum94PpNvyZir-7" value="" style="endArrow=classic;html=1;rounded=0;entryX=0;entryY=0.5;entryDx=0;entryDy=0;" edge="1" parent="1" target="p-pG7fpzum94PpNvyZir-5">
          <mxGeometry width="50" height="50" relative="1" as="geometry">
            <mxPoint x="160" y="160" as="sourcePoint" />
            <mxPoint x="270" y="125" as="targetPoint" />
          </mxGeometry>
        </mxCell>
        <mxCell id="p-pG7fpzum94PpNvyZir-32" style="edgeStyle=orthogonalEdgeStyle;orthogonalLoop=1;jettySize=auto;html=1;rounded=0;endArrow=block;endFill=0;" edge="1" parent="1" source="p-pG7fpzum94PpNvyZir-8">
          <mxGeometry relative="1" as="geometry">
            <mxPoint x="130" y="210" as="targetPoint" />
          </mxGeometry>
        </mxCell>
        <mxCell id="p-pG7fpzum94PpNvyZir-8" value="Покупатель" style="shape=umlActor;verticalLabelPosition=bottom;verticalAlign=top;html=1;" vertex="1" parent="1">
          <mxGeometry x="180" y="370" width="30" height="60" as="geometry" />
        </mxCell>
        <mxCell id="p-pG7fpzum94PpNvyZir-11" value="Купить билет на мероприятие" style="ellipse;whiteSpace=wrap;html=1;" vertex="1" parent="1">
          <mxGeometry x="340" y="240" width="120" height="50" as="geometry" />
        </mxCell>
        <mxCell id="p-pG7fpzum94PpNvyZir-13" value="Посмотреть купленный билет на мероприятие" style="ellipse;whiteSpace=wrap;html=1;" vertex="1" parent="1">
          <mxGeometry x="340" y="300" width="125" height="60" as="geometry" />
        </mxCell>
        <mxCell id="p-pG7fpzum94PpNvyZir-15" value="Вернуть купленный билет на мероприятие" style="ellipse;whiteSpace=wrap;html=1;" vertex="1" parent="1">
          <mxGeometry x="340" y="370" width="140" height="60" as="geometry" />
        </mxCell>
        <mxCell id="p-pG7fpzum94PpNvyZir-16" value="Посмотреть свободные места на мероприятии" style="ellipse;whiteSpace=wrap;html=1;" vertex="1" parent="1">
          <mxGeometry x="340" y="440" width="130" height="50" as="geometry" />
        </mxCell>
        <mxCell id="p-pG7fpzum94PpNvyZir-17" value="Оформить подписку" style="ellipse;whiteSpace=wrap;html=1;" vertex="1" parent="1">
          <mxGeometry x="340" y="500" width="120" height="50" as="geometry" />
        </mxCell>
        <mxCell id="p-pG7fpzum94PpNvyZir-18" value="Отменить подписку подписку" style="ellipse;whiteSpace=wrap;html=1;" vertex="1" parent="1">
          <mxGeometry x="340" y="560" width="120" height="50" as="geometry" />
        </mxCell>
        <mxCell id="p-pG7fpzum94PpNvyZir-19" value="" style="endArrow=classic;html=1;rounded=0;entryX=0;entryY=0.5;entryDx=0;entryDy=0;" edge="1" parent="1" target="p-pG7fpzum94PpNvyZir-11">
          <mxGeometry width="50" height="50" relative="1" as="geometry">
            <mxPoint x="210" y="400" as="sourcePoint" />
            <mxPoint x="330" y="325" as="targetPoint" />
          </mxGeometry>
        </mxCell>
        <mxCell id="p-pG7fpzum94PpNvyZir-20" value="" style="endArrow=classic;html=1;rounded=0;entryX=0;entryY=0.5;entryDx=0;entryDy=0;" edge="1" parent="1" target="p-pG7fpzum94PpNvyZir-13">
          <mxGeometry width="50" height="50" relative="1" as="geometry">
            <mxPoint x="210" y="400" as="sourcePoint" />
            <mxPoint x="320" y="340" as="targetPoint" />
          </mxGeometry>
        </mxCell>
        <mxCell id="p-pG7fpzum94PpNvyZir-21" value="" style="endArrow=classic;html=1;rounded=0;entryX=0;entryY=0.5;entryDx=0;entryDy=0;" edge="1" parent="1" target="p-pG7fpzum94PpNvyZir-15">
          <mxGeometry width="50" height="50" relative="1" as="geometry">
            <mxPoint x="210" y="400" as="sourcePoint" />
            <mxPoint x="350" y="340" as="targetPoint" />
          </mxGeometry>
        </mxCell>
        <mxCell id="p-pG7fpzum94PpNvyZir-22" value="" style="endArrow=classic;html=1;rounded=0;entryX=0;entryY=0.5;entryDx=0;entryDy=0;" edge="1" parent="1" target="p-pG7fpzum94PpNvyZir-16">
          <mxGeometry width="50" height="50" relative="1" as="geometry">
            <mxPoint x="210" y="400" as="sourcePoint" />
            <mxPoint x="350" y="410" as="targetPoint" />
          </mxGeometry>
        </mxCell>
        <mxCell id="p-pG7fpzum94PpNvyZir-23" value="" style="endArrow=classic;html=1;rounded=0;entryX=0;entryY=0.5;entryDx=0;entryDy=0;" edge="1" parent="1" target="p-pG7fpzum94PpNvyZir-17">
          <mxGeometry width="50" height="50" relative="1" as="geometry">
            <mxPoint x="210" y="400" as="sourcePoint" />
            <mxPoint x="340" y="525" as="targetPoint" />
          </mxGeometry>
        </mxCell>
        <mxCell id="p-pG7fpzum94PpNvyZir-24" value="" style="endArrow=classic;html=1;rounded=0;entryX=0;entryY=0.5;entryDx=0;entryDy=0;" edge="1" parent="1" target="p-pG7fpzum94PpNvyZir-38">
          <mxGeometry width="50" height="50" relative="1" as="geometry">
            <mxPoint x="210" y="680" as="sourcePoint" />
            <mxPoint x="340" y="865" as="targetPoint" />
          </mxGeometry>
        </mxCell>
        <mxCell id="p-pG7fpzum94PpNvyZir-31" style="edgeStyle=orthogonalEdgeStyle;rounded=0;orthogonalLoop=1;jettySize=auto;html=1;endArrow=block;endFill=0;" edge="1" parent="1" source="p-pG7fpzum94PpNvyZir-25">
          <mxGeometry relative="1" as="geometry">
            <mxPoint x="130" y="210" as="targetPoint" />
          </mxGeometry>
        </mxCell>
        <mxCell id="p-pG7fpzum94PpNvyZir-25" value="Администратор" style="shape=umlActor;verticalLabelPosition=bottom;verticalAlign=top;html=1;" vertex="1" parent="1">
          <mxGeometry x="180" y="650" width="30" height="60" as="geometry" />
        </mxCell>
        <mxCell id="p-pG7fpzum94PpNvyZir-34" value="Добавить новое мероприятие" style="ellipse;whiteSpace=wrap;html=1;" vertex="1" parent="1">
          <mxGeometry x="340" y="630" width="120" height="50" as="geometry" />
        </mxCell>
        <mxCell id="p-pG7fpzum94PpNvyZir-35" value="Заблокировать пользователя" style="ellipse;whiteSpace=wrap;html=1;" vertex="1" parent="1">
          <mxGeometry x="340" y="690" width="120" height="50" as="geometry" />
        </mxCell>
        <mxCell id="p-pG7fpzum94PpNvyZir-36" value="Посмотреть информацию о пользователе" style="ellipse;whiteSpace=wrap;html=1;" vertex="1" parent="1">
          <mxGeometry x="340" y="750" width="120" height="50" as="geometry" />
        </mxCell>
        <mxCell id="p-pG7fpzum94PpNvyZir-37" value="Посмотреть информацию о Билете" style="ellipse;whiteSpace=wrap;html=1;" vertex="1" parent="1">
          <mxGeometry x="340" y="810" width="120" height="50" as="geometry" />
        </mxCell>
        <mxCell id="p-pG7fpzum94PpNvyZir-38" value="Редактировать данные мероприятия" style="ellipse;whiteSpace=wrap;html=1;" vertex="1" parent="1">
          <mxGeometry x="340" y="870" width="120" height="50" as="geometry" />
        </mxCell>
        <mxCell id="p-pG7fpzum94PpNvyZir-39" value="" style="endArrow=classic;html=1;rounded=0;entryX=0;entryY=0.5;entryDx=0;entryDy=0;" edge="1" parent="1">
          <mxGeometry width="50" height="50" relative="1" as="geometry">
            <mxPoint x="220" y="410" as="sourcePoint" />
            <mxPoint x="350" y="595" as="targetPoint" />
          </mxGeometry>
        </mxCell>
        <mxCell id="p-pG7fpzum94PpNvyZir-40" value="" style="endArrow=classic;html=1;rounded=0;entryX=0;entryY=0.5;entryDx=0;entryDy=0;" edge="1" parent="1" target="p-pG7fpzum94PpNvyZir-37">
          <mxGeometry width="50" height="50" relative="1" as="geometry">
            <mxPoint x="210" y="680" as="sourcePoint" />
            <mxPoint x="350" y="905" as="targetPoint" />
          </mxGeometry>
        </mxCell>
        <mxCell id="p-pG7fpzum94PpNvyZir-41" value="" style="endArrow=classic;html=1;rounded=0;entryX=0;entryY=0.5;entryDx=0;entryDy=0;" edge="1" parent="1">
          <mxGeometry width="50" height="50" relative="1" as="geometry">
            <mxPoint x="210" y="680" as="sourcePoint" />
            <mxPoint x="340" y="775" as="targetPoint" />
          </mxGeometry>
        </mxCell>
        <mxCell id="p-pG7fpzum94PpNvyZir-42" value="" style="endArrow=classic;html=1;rounded=0;entryX=0;entryY=0.5;entryDx=0;entryDy=0;" edge="1" parent="1" target="p-pG7fpzum94PpNvyZir-35">
          <mxGeometry width="50" height="50" relative="1" as="geometry">
            <mxPoint x="210" y="680" as="sourcePoint" />
            <mxPoint x="340" y="725" as="targetPoint" />
          </mxGeometry>
        </mxCell>
        <mxCell id="p-pG7fpzum94PpNvyZir-43" value="" style="endArrow=classic;html=1;rounded=0;entryX=0;entryY=0.5;entryDx=0;entryDy=0;" edge="1" parent="1" target="p-pG7fpzum94PpNvyZir-34">
          <mxGeometry width="50" height="50" relative="1" as="geometry">
            <mxPoint x="210" y="680" as="sourcePoint" />
            <mxPoint x="350" y="697.5" as="targetPoint" />
          </mxGeometry>
        </mxCell>
        <mxCell id="p-pG7fpzum94PpNvyZir-48" style="edgeStyle=orthogonalEdgeStyle;rounded=0;orthogonalLoop=1;jettySize=auto;html=1;endArrow=none;endFill=0;" edge="1" parent="1" source="p-pG7fpzum94PpNvyZir-44">
          <mxGeometry relative="1" as="geometry">
            <mxPoint x="130" y="680" as="targetPoint" />
          </mxGeometry>
        </mxCell>
        <mxCell id="p-pG7fpzum94PpNvyZir-44" value="Аналитик-маргетолог" style="shape=umlActor;verticalLabelPosition=bottom;verticalAlign=top;html=1;" vertex="1" parent="1">
          <mxGeometry x="170" y="970" width="30" height="60" as="geometry" />
        </mxCell>
        <mxCell id="p-pG7fpzum94PpNvyZir-46" value="Посмотреть статистику о продажах билетов" style="ellipse;whiteSpace=wrap;html=1;" vertex="1" parent="1">
          <mxGeometry x="340" y="940" width="130" height="70" as="geometry" />
        </mxCell>
        <mxCell id="p-pG7fpzum94PpNvyZir-47" value="Изменить цену подписки" style="ellipse;whiteSpace=wrap;html=1;" vertex="1" parent="1">
          <mxGeometry x="340" y="1020" width="127.5" height="50" as="geometry" />
        </mxCell>
        <mxCell id="p-pG7fpzum94PpNvyZir-49" value="Запустить рекламную рассылку" style="ellipse;whiteSpace=wrap;html=1;" vertex="1" parent="1">
          <mxGeometry x="342.5" y="1080" width="147.5" height="50" as="geometry" />
        </mxCell>
        <mxCell id="p-pG7fpzum94PpNvyZir-51" value="Удалить рекламную рассылку" style="ellipse;whiteSpace=wrap;html=1;" vertex="1" parent="1">
          <mxGeometry x="340" y="1140" width="147.5" height="50" as="geometry" />
        </mxCell>
        <mxCell id="p-pG7fpzum94PpNvyZir-52" value="" style="endArrow=classic;html=1;rounded=0;entryX=0;entryY=0.5;entryDx=0;entryDy=0;" edge="1" parent="1" target="p-pG7fpzum94PpNvyZir-51">
          <mxGeometry width="50" height="50" relative="1" as="geometry">
            <mxPoint x="210" y="1000" as="sourcePoint" />
            <mxPoint x="340" y="1235" as="targetPoint" />
          </mxGeometry>
        </mxCell>
        <mxCell id="p-pG7fpzum94PpNvyZir-53" value="" style="endArrow=classic;html=1;rounded=0;entryX=0;entryY=0.5;entryDx=0;entryDy=0;" edge="1" parent="1">
          <mxGeometry width="50" height="50" relative="1" as="geometry">
            <mxPoint x="210" y="1000" as="sourcePoint" />
            <mxPoint x="342.5" y="1105" as="targetPoint" />
          </mxGeometry>
        </mxCell>
        <mxCell id="p-pG7fpzum94PpNvyZir-54" value="" style="endArrow=classic;html=1;rounded=0;entryX=0;entryY=0.5;entryDx=0;entryDy=0;" edge="1" parent="1" target="p-pG7fpzum94PpNvyZir-47">
          <mxGeometry width="50" height="50" relative="1" as="geometry">
            <mxPoint x="210" y="1000" as="sourcePoint" />
            <mxPoint x="332.5" y="1030" as="targetPoint" />
          </mxGeometry>
        </mxCell>
        <mxCell id="p-pG7fpzum94PpNvyZir-55" value="" style="endArrow=classic;html=1;rounded=0;entryX=0;entryY=0.5;entryDx=0;entryDy=0;" edge="1" parent="1" target="p-pG7fpzum94PpNvyZir-46">
          <mxGeometry width="50" height="50" relative="1" as="geometry">
            <mxPoint x="210" y="1000" as="sourcePoint" />
            <mxPoint x="320" y="985" as="targetPoint" />
          </mxGeometry>
        </mxCell>
      </root>
    </mxGraphModel>
  </diagram>
</mxfile>
